<?xml version="1.0" standalone="no"?>
<!DOCTYPE svg PUBLIC "-//W3C//DTD SVG 20010904//EN"
 "http://www.w3.org/TR/2001/REC-SVG-20010904/DTD/svg10.dtd">
<svg version="1.0" xmlns="http://www.w3.org/2000/svg"
 width="240.000000pt" height="240.000000pt" viewBox="0 0 240.000000 240.000000"
 preserveAspectRatio="xMidYMid meet">
<metadata>
Created by potrace 1.14, written by Peter Selinger 2001-2017
</metadata>
<g transform="translate(0.000000,240.000000) scale(0.100000,-0.100000)"
fill="#000000" stroke="none">
<path d="M1590 2145 c-9 -11 -11 -33 -6 -80 4 -36 5 -65 4 -65 -2 0 -28 10
-58 21 -38 15 -86 23 -156 27 -131 6 -225 -14 -347 -75 -161 -81 -308 -251
-374 -431 -37 -101 -43 -269 -14 -376 26 -96 64 -174 108 -225 43 -51 42 -63
-4 -56 -21 3 -130 14 -243 26 -194 19 -205 19 -217 3 -7 -10 -13 -21 -13 -25
0 -3 20 -66 45 -138 25 -72 45 -132 45 -134 0 -1 -50 -3 -111 -5 -113 -2 -149
-11 -149 -37 0 -8 -9 -15 -19 -15 -24 0 -51 -36 -51 -67 0 -34 20 -70 46 -82
15 -6 24 -19 24 -33 0 -48 12 -53 127 -53 59 0 116 3 126 7 15 6 17 23 18 130
l0 123 52 -140 c42 -112 58 -142 77 -151 14 -7 177 -31 362 -54 l337 -42 183
56 c101 31 191 61 200 66 10 5 166 10 369 10 245 0 356 3 366 11 19 17 16 87
-7 138 -30 66 -86 137 -136 173 -73 52 -124 177 -139 341 -6 62 -5 77 6 77 25
-1 49 -27 49 -53 0 -42 18 -76 46 -89 35 -16 44 0 44 80 0 34 2 62 5 62 3 0
23 -12 45 -26 58 -39 75 -31 75 36 0 30 -4 70 -8 88 -7 26 -6 32 8 32 27 0 75
33 75 50 0 9 -12 27 -26 41 -14 13 -48 57 -75 97 l-49 73 7 75 6 74 -50 50
-50 50 33 56 c19 31 34 60 34 64 0 14 -23 17 -54 9 -16 -5 -32 -7 -34 -4 -3 2
2 40 11 82 12 62 13 80 3 88 -6 6 -18 36 -25 68 -12 56 -31 87 -54 87 -22 0
-107 -103 -137 -166 l-30 -64 -72 75 c-118 125 -199 175 -228 140z m51 -1524
c2 -26 -2 -44 -15 -63 -10 -14 -12 -6 -12 48 0 57 2 64 13 48 7 -10 14 -25 14
-33z m-1541 -132 c0 -17 -4 -28 -10 -24 -5 3 -10 17 -10 31 0 13 5 24 10 24 6
0 10 -14 10 -31z m1462 -41 c-3 -32 -8 -38 -28 -38 -44 0 -41 40 5 64 14 8 26
14 27 13 1 -1 -1 -19 -4 -39z m646 -52 c-2 -11 -9 -21 -15 -24 -9 -2 -13 9
-13 40 1 40 2 42 16 23 8 -11 13 -29 12 -39z"/>
<path d="M176 764 c-32 -33 -33 -44 -1 -74 22 -20 23 -25 10 -32 -23 -13 -18
-30 8 -26 32 4 33 39 2 68 l-25 24 32 33 c22 23 27 33 16 33 -8 0 -27 -12 -42
-26z"/>
<path d="M250 701 c-7 -14 -7 -22 0 -26 8 -5 8 -11 0 -20 -17 -20 8 -31 28
-11 14 14 14 17 -1 34 -13 14 -14 21 -5 30 9 9 9 12 0 12 -6 0 -16 -9 -22 -19z"/>
</g>
</svg>
